<?xml version="1.0" encoding="iso-8859-1"?>
<!-- Uploaded to: SVG Repo, www.svgrepo.com, Generator: SVG Repo Mixer Tools -->
<svg fill="#000000" height="800px" width="800px" version="1.1" id="Layer_1" xmlns="http://www.w3.org/2000/svg" xmlns:xlink="http://www.w3.org/1999/xlink" 
	 viewBox="0 0 512.003 512.003" xml:space="preserve">
<g>
	<g>
		<path d="M506.59,339.577c-0.597-0.418-14.865-10.428-34.022-16.657c-16.384-5.325-31.403-6.153-44.911-2.978
			c-3.977-38.067-41.088-66.628-42.769-67.883c-1.143-0.845-2.398-1.485-3.703-1.911c-3.874-1.263-8.209-0.614-11.614,1.92
			c-0.563,0.418-5.24,4.13-11.179,9.993v-12.535c0-14.14-11.46-25.6-25.6-25.6H194.227c0.162-4.591,0.657-9.37,1.544-14.319
			c27.725-4.762,46.319-21.777,52.838-49.365c12.885-54.588-25.574-133.504-63.684-152.559c-3.977-1.971-8.678-1.784-12.45,0.563
			c-3.772,2.33-6.076,6.443-6.076,10.88c0,37.709-12.911,53.521-26.573,70.272c-12.109,14.822-24.627,30.148-24.627,57.728
			c0,29.739,25.438,57.762,54.622,62.925c-0.691,4.48-0.964,9.114-1.101,13.875H25.6c-14.14,0-25.6,11.46-25.6,25.6v230.4
			c0,14.14,11.46,25.6,25.6,25.6h307.2c8.969,0,16.478-4.89,21.052-11.87c8.704-4.335,17.126-9.993,23.902-17.929
			c9.037,10.231,21.495,18.193,37.572,23.424c19.14,6.221,36.565,6.502,37.299,6.519c5.666,0.068,10.709-3.593,12.39-9.003
			c0.631-2.022,14.029-47.42-5.589-80.606c35.371-15.326,51.217-59.921,51.9-61.926C513.143,348.776,511.215,342.854,506.59,339.577
			z M140.8,147.125c0-18.449,7.91-28.134,18.85-41.54c11.554-14.148,25.361-31.078,30.396-61.346
			c22.69,25.796,41.6,76.399,33.638,110.123c-3.379,14.31-11.605,23.219-24.201,27.682c0.461-12.032-1.263-25.506-8.841-40.644
			c-3.174-6.34-10.837-8.892-17.178-5.726c-6.323,3.166-8.892,10.846-5.726,17.178c5.973,11.938,6.724,21.973,5.82,31.966
			C156.774,181.438,140.8,163.91,140.8,147.125z M286.071,479.917H25.6V249.525h307.2v49.015c-3.004,6.946-5.393,14.319-6.11,22.229
			c-37.692-8.542-76.86,18.321-78.592,19.55c-4.625,3.268-6.545,9.19-4.727,14.549c0.674,2.014,16.572,46.771,52.087,62.012
			C283.119,437.617,283.725,463.157,286.071,479.917z M271.616,355.987c11.938-6.451,33.988-15.846,52.651-9.788
			c15.957,5.188,27.332,21.163,33.954,33.34c-12.544,2.193-29.039,7.083-43.238,16.811c-2.21-0.316-4.395-0.76-6.537-1.451
			C289.903,388.874,277.513,368.232,271.616,355.987z M360.311,457.15c-11.187,15.403-33.34,20.813-46.95,22.767h-1.451
			c-2.424-13.389-4.497-37.069,6.989-52.864c9.975-13.739,28.715-19.405,42.368-21.896c-1.655,12.339-1.929,28.766,2.603,44.587
			C362.743,452.252,361.941,454.914,360.311,457.15z M352.58,333.237c-0.418-2.295-0.956-4.565-0.956-6.921
			c-0.009-19.635,15.778-37.709,25.6-47.07c9.83,9.361,25.6,27.426,25.6,47.061c0,17.024-11.691,32.512-21.248,42.522
			C375.663,357.685,366.02,343.682,352.58,333.237z M442.803,479.174c-5.393-0.725-12.365-2.031-19.567-4.378
			c-13.218-4.292-22.886-10.581-28.774-18.671c-9.847-13.568-9.574-32.845-7.791-46.583c5.035,2.466,10.914,5.018,17.425,7.134
			c9.446,3.072,18.458,4.685,27,4.932c1.527,1.51,3.584,2.765,4.796,4.429C447.334,441.807,445.235,465.794,442.803,479.174z
			 M446.251,394.148c-9.506,3.089-21.035,2.475-34.236-1.818c-4.625-1.502-8.713-3.277-12.476-5.06
			c8.73-9.122,18.842-22.554,24.482-38.366c2.133-1.169,4.07-2.697,6.409-3.456c9.506-3.089,21.035-2.475,34.236,1.818
			c7.228,2.347,13.645,5.41,18.449,7.987C477.235,367.498,464.922,388.072,446.251,394.148z"/>
	</g>
</g>
</svg>